<?xml version="1.0" encoding="utf-8"?>
<!-- Generator: Adobe Illustrator 21.0.2, SVG Export Plug-In . SVG Version: 6.00 Build 0)  -->
<svg version="1.1" id="Ebene_1" xmlns="http://www.w3.org/2000/svg" xmlns:xlink="http://www.w3.org/1999/xlink" x="0px" y="0px"
	 viewBox="0 0 207.6 50.8" style="enable-background:new 0 0 207.6 50.8;" xml:space="preserve">
<style type="text/css">
	.st0{fill:#FFFFFF;}
</style>
<title>logo schrift</title>
<path class="st0" d="M11.7,7.4c0.4,0.3,0.9,0.4,1.4,0.4c0.8,0,1.1-0.4,1.1-0.9s-0.3-0.8-1.1-1.1c-1-0.4-1.5-1-1.5-1.6
	c0-1,0.9-1.8,1.9-1.7c0,0,0.1,0,0.1,0c0.5,0,1,0.1,1.4,0.4l-0.3,0.8c-0.4-0.2-0.8-0.3-1.2-0.3c-0.6,0-1,0.4-1,0.8s0.4,0.7,1.1,1
	c1,0.4,1.5,0.9,1.5,1.8c0,1-0.8,1.7-2.2,1.7c-0.6,0-1.1-0.1-1.6-0.4L11.7,7.4z"/>
<path class="st0" d="M17.9,1.1v1.7h1.5v0.8h-1.5v3.1c0,0.7,0.2,1.1,0.8,1.1c0.2,0,0.4,0,0.6-0.1v0.8c-0.3,0.1-0.6,0.2-0.9,0.1
	c-0.4,0-0.8-0.1-1.1-0.4c-0.3-0.4-0.5-1-0.4-1.5V3.5h-0.9V2.7h0.9V1.3L17.9,1.1z"/>
<path class="st0" d="M23.8,8.5l-0.1-0.7l0,0c-0.4,0.6-1.1,0.9-1.8,0.9C21,8.7,20.2,8,20.2,7.1c0,0,0-0.1,0-0.1
	c0-1.4,1.3-2.2,3.5-2.2V4.7c0.1-0.7-0.4-1.3-1-1.3c-0.1,0-0.2,0-0.3,0c-0.5,0-1.1,0.2-1.5,0.4l-0.2-0.7c0.6-0.3,1.2-0.5,1.9-0.5
	c1.8,0,2.2,1.2,2.2,2.4v2.2c0,0.5,0,0.9,0.1,1.4L23.8,8.5z M23.6,5.5c-1.1,0-2.5,0.2-2.5,1.3c0,0.5,0.3,1,0.9,1c0,0,0.1,0,0.1,0
	c0.6,0,1.2-0.4,1.4-1c0-0.1,0.1-0.2,0.1-0.3L23.6,5.5z"/>
<path class="st0" d="M31.4,0v7c0,0.5,0,1.1,0,1.5h-0.9v-1l0,0c-0.4,0.7-1.2,1.2-2,1.1c-1.4,0-2.5-1.2-2.5-3c0-1.9,1.2-3.1,2.6-3.1
	c0.7,0,1.4,0.3,1.8,0.9l0,0V0H31.4z M30.3,5.1c0-0.1,0-0.3,0-0.4c-0.2-0.7-0.8-1.2-1.5-1.2c-1.1,0-1.7,1-1.7,2.2s0.6,2.2,1.7,2.2
	c0.7,0,1.4-0.5,1.6-1.3c0-0.2,0-0.3,0-0.5L30.3,5.1z"/>
<path class="st0" d="M34.4,1.1v1.7h1.5v0.8h-1.5v3.1c0,0.7,0.2,1.1,0.8,1.1c0.2,0,0.4,0,0.6-0.1v0.8c-0.3,0.1-0.6,0.2-0.9,0.1
	c-0.4,0-0.8-0.1-1.1-0.4c-0.3-0.4-0.5-1-0.4-1.5V3.5h-0.9V2.7h0.9V1.3L34.4,1.1z"/>
<path class="st0" d="M37.1,4.3c0-0.6,0-1.1,0-1.6H38v0.9l0,0c0.4-0.7,1.1-1.1,1.8-1.1c0.8,0,1.4,0.4,1.7,1.2l0,0
	c0.2-0.3,0.4-0.6,0.6-0.8c0.4-0.3,0.8-0.4,1.3-0.4c0.8,0,1.9,0.5,1.9,2.5v3.4h-1V5.2c0-1.1-0.4-1.8-1.3-1.8c-0.6,0-1.1,0.4-1.3,1
	c-0.1,0.2-0.1,0.4-0.1,0.5v3.6h-1V5c0-0.9-0.4-1.6-1.2-1.6c-0.6,0-1.2,0.4-1.4,1.1c-0.1,0.2-0.1,0.3-0.1,0.5v3.5h-1L37.1,4.3z"/>
<path class="st0" d="M52.4,5.6c0.1,1.6-1,2.9-2.6,3.1c-0.1,0-0.2,0-0.3,0c-1.5,0-2.8-1.2-2.8-2.7c0-0.1,0-0.2,0-0.3
	c-0.1-1.6,1-2.9,2.6-3.1c0.1,0,0.2,0,0.3,0c1.5,0,2.8,1.2,2.8,2.7C52.4,5.4,52.4,5.5,52.4,5.6z M47.7,5.6c0,1.3,0.7,2.2,1.8,2.2
	s1.8-1,1.8-2.3c0-1-0.5-2.2-1.7-2.2S47.7,4.5,47.7,5.6z"/>
<path class="st0" d="M58.7,0v7c0,0.5,0,1.1,0,1.5h-0.9v-1l0,0c-0.4,0.7-1.2,1.2-2,1.1c-1.4,0-2.5-1.2-2.5-3c0-1.9,1.2-3.1,2.6-3.1
	c0.7,0,1.4,0.3,1.8,0.9l0,0V0H58.7z M57.6,5.1c0-0.1,0-0.3,0-0.4c-0.2-0.7-0.8-1.2-1.5-1.2c-1.1,0-1.7,1-1.7,2.2s0.6,2.2,1.7,2.2
	c0.7,0,1.4-0.5,1.6-1.3c0-0.2,0-0.3,0-0.5L57.6,5.1z"/>
<path class="st0" d="M61,5.8c-0.1,1,0.7,1.9,1.7,2c0.1,0,0.2,0,0.3,0c0.6,0,1.1-0.1,1.6-0.3l0.2,0.8c-0.6,0.3-1.3,0.4-1.9,0.4
	c-1.5,0.1-2.8-1-2.9-2.5c0-0.1,0-0.2,0-0.4c0-1.8,1-3.1,2.7-3.1c1.4,0,2.4,1.1,2.4,2.5c0,0.1,0,0.2,0,0.2c0,0.2,0,0.3,0,0.5L61,5.8z
	 M64.1,5.1c0.1-0.8-0.5-1.6-1.3-1.7c-0.1,0-0.1,0-0.2,0c-0.9,0.1-1.6,0.8-1.6,1.7H64.1z"/>
<path class="st0" d="M66.5,0h1.1v8.5h-1.1V0z"/>
<path class="st0" d="M69.3,0h1.1v8.5h-1.1V0z"/>
<path class="st0" d="M0.2,29c0-1.9,0-3.9-0.2-5.8h1.8l0.1,3.9H2c0.7-2.5,2.9-4.2,5.4-4.3c0.3,0,0.5,0,0.8,0.1v1.8
	c-0.3,0-0.6,0-0.9,0c-2.6,0-4.5,2.3-5,5.4c-0.1,0.6-0.2,1.2-0.2,1.8v10.6h-2V29z"/>
<path class="st0" d="M11.8,32.6c0,6.1,3.4,8.6,7.3,8.6c1.8,0.1,3.7-0.3,5.3-1.1l0.5,1.5c-1.9,0.9-3.9,1.3-6,1.2c-5.5,0-9-4-9-9.6
	c0-6.4,3.7-10.4,8.6-10.4c6.3,0,7.5,5.9,7.5,8.7c0,0.4,0,0.8-0.1,1.2H11.8z M24.1,31.1c0-2.7-1.1-6.7-5.7-6.7c-4.2,0-6,3.8-6.4,6.7
	H24.1z"/>
<path class="st0" d="M46.3,39.6c0,4.9-1,7.4-2.6,8.9c-1.8,1.5-4.1,2.3-6.5,2.3c-2.2,0.1-4.3-0.5-6.1-1.7l0.7-1.5
	c1.7,1.1,3.7,1.6,5.7,1.6c4,0,7-2.1,7-7.8v-2.7h-0.1c-1.3,2.4-3.9,3.9-6.7,3.7c-4.8,0-8.2-4.2-8.2-9.4c0-6.7,4.4-10.2,8.6-10.2
	c2.7-0.2,5.2,1.3,6.5,3.7h0.1l0.1-3.2h1.8c-0.1,1.4-0.2,3-0.2,5L46.3,39.6z M44.4,30.6c0-0.6,0-1.3-0.2-1.9c-0.8-2.6-3.3-4.4-6-4.4
	c-4.1,0-6.9,3.3-6.9,8.4c0,4.3,2.3,8,6.8,8c2.7,0,5.1-1.7,6-4.3c0.2-0.6,0.3-1.3,0.3-2L44.4,30.6z"/>
<path class="st0" d="M53.3,19.4c-0.8,0-1.5-0.7-1.5-1.6c0,0,0,0,0-0.1c0-0.9,0.7-1.6,1.6-1.7c0.9,0,1.6,0.8,1.5,1.6c0,0,0,0,0,0
	c0,0.9-0.6,1.6-1.5,1.6C53.4,19.4,53.3,19.4,53.3,19.4L53.3,19.4z M52.4,42.4V23.2h1.9v19.2L52.4,42.4z"/>
<path class="st0" d="M68,42.9c-5,0-8.8-3.9-8.8-9.9c0-6.6,4.3-10.2,9.1-10.2c5.3,0,8.9,4,8.9,9.9C77.2,39.8,72.2,42.9,68,42.9
	L68,42.9z M68.1,41.3c4,0,7.2-3.6,7.2-8.5c0-3.5-2-8.4-7-8.4c-4.9,0-7.1,4.4-7.1,8.5C61.1,37.7,64.1,41.3,68.1,41.3L68.1,41.3z"/>
<path class="st0" d="M82,27.8c0-1.8,0-3.1-0.2-4.6h1.8l0.1,3.4h0.1c1.3-2.4,3.8-4,6.6-3.9c1.8,0,6.7,0.9,6.7,8.1v11.5h-1.9V31.1
	c0-3.5-1.4-6.7-5.3-6.7c-2.7,0.1-5,1.8-5.8,4.4c-0.1,0.5-0.2,1.1-0.2,1.7v11.9H82L82,27.8z"/>
<path class="st0" d="M111,30.6v1.7h-9.5v-1.7H111z"/>
<path class="st0" d="M115.4,14h1.9v28.4h-1.9V14z"/>
<path class="st0" d="M138.7,37.7c0,1.7,0,3.2,0.2,4.7H137l-0.1-3.4h-0.1c-1.3,2.4-3.8,3.9-6.6,3.9c-2.4,0-6.6-1.2-6.6-8.5V23.2h1.9
	V34c0,4.2,1.3,7.2,5.1,7.2c2.5-0.1,4.7-1.6,5.7-3.9c0.2-0.7,0.4-1.4,0.4-2.1v-12h1.9V37.7z"/>
<path class="st0" d="M142.5,41.3l10.4-13.6c0.7-0.9,1.4-1.8,2.2-2.8v-0.1h-11.7v-1.6h14v1.3L147,38.2c-0.7,0.9-1.3,1.8-2,2.6v0.1
	h12.5v1.6h-15V41.3z"/>
<path class="st0" d="M161.2,32.6c0,6.1,3.4,8.6,7.3,8.6c1.8,0.1,3.7-0.3,5.3-1.1l0.5,1.5c-1.9,0.9-3.9,1.3-6,1.2c-5.5,0-9-4-9-9.6
	c0-6.4,3.7-10.4,8.6-10.4c6.3,0,7.5,5.9,7.5,8.7c0,0.4,0,0.8-0.1,1.2H161.2z M173.4,31.1c0-2.7-1.1-6.7-5.7-6.7
	c-4.2,0-6,3.8-6.4,6.7H173.4z"/>
<path class="st0" d="M180.3,29c0-1.9,0-3.9-0.2-5.8h1.8l0.1,3.9h0.1c0.7-2.5,2.9-4.2,5.4-4.3c0.3,0,0.5,0,0.8,0.1v1.8
	c-0.3,0-0.6,0-0.9,0c-2.6,0-4.5,2.3-5,5.4c-0.1,0.6-0.2,1.2-0.2,1.8v10.6h-1.9L180.3,29z"/>
<path class="st0" d="M192.4,27.8c0-1.8,0-3.1-0.2-4.6h1.8l0.1,3.4h0.1c1.3-2.4,3.8-4,6.6-3.9c1.8,0,6.7,0.9,6.7,8.1v11.5h-1.9V31.1
	c0-3.5-1.4-6.7-5.3-6.7c-2.7,0.1-5,1.9-5.8,4.4c-0.1,0.5-0.2,1.1-0.2,1.7v11.9h-1.9L192.4,27.8z"/>
</svg>
